<mxfile host="app.diagrams.net" agent="Mozilla/5.0 (Windows NT 10.0; Win64; x64) AppleWebKit/537.36 (KHTML, like Gecko) Chrome/141.0.0.0 Safari/537.36 Edg/141.0.0.0" version="28.2.8">
  <diagram name="Page-1" id="0783ab3e-0a74-02c8-0abd-f7b4e66b4bec">
    <mxGraphModel dx="2058" dy="1116" grid="1" gridSize="10" guides="1" tooltips="1" connect="1" arrows="1" fold="1" page="1" pageScale="1" pageWidth="850" pageHeight="1100" background="none" math="0" shadow="0">
      <root>
        <mxCell id="0" />
        <mxCell id="1" parent="0" />
        <mxCell id="1c1d494c118603dd-1" value="Execute Smart Allocation Flow" style="swimlane;html=1;childLayout=stackLayout;startSize=20;rounded=0;shadow=0;comic=0;labelBackgroundColor=none;strokeWidth=1;fontFamily=Verdana;fontSize=12;align=center;" parent="1" vertex="1">
          <mxGeometry x="40" y="20" width="750" height="1380" as="geometry" />
        </mxCell>
        <mxCell id="1c1d494c118603dd-2" value="Dorm Administrator" style="swimlane;html=1;startSize=20;" parent="1c1d494c118603dd-1" vertex="1">
          <mxGeometry y="20" width="250" height="1360" as="geometry" />
        </mxCell>
        <mxCell id="QMzzxeoRtSdpisOg_wXL-3" style="edgeStyle=orthogonalEdgeStyle;rounded=0;orthogonalLoop=1;jettySize=auto;html=1;entryX=0.5;entryY=0;entryDx=0;entryDy=0;" edge="1" parent="1c1d494c118603dd-2" source="QMzzxeoRtSdpisOg_wXL-1" target="QMzzxeoRtSdpisOg_wXL-2">
          <mxGeometry relative="1" as="geometry" />
        </mxCell>
        <mxCell id="QMzzxeoRtSdpisOg_wXL-1" value="" style="ellipse;whiteSpace=wrap;html=1;rounded=0;shadow=0;comic=0;labelBackgroundColor=none;strokeWidth=1;fillColor=#000000;fontFamily=Verdana;fontSize=12;align=center;" vertex="1" parent="1c1d494c118603dd-2">
          <mxGeometry x="105" y="50" width="40" height="40" as="geometry" />
        </mxCell>
        <mxCell id="QMzzxeoRtSdpisOg_wXL-5" value="" style="edgeStyle=orthogonalEdgeStyle;rounded=0;orthogonalLoop=1;jettySize=auto;html=1;" edge="1" parent="1c1d494c118603dd-2" source="QMzzxeoRtSdpisOg_wXL-2" target="QMzzxeoRtSdpisOg_wXL-4">
          <mxGeometry relative="1" as="geometry" />
        </mxCell>
        <mxCell id="QMzzxeoRtSdpisOg_wXL-2" value="Set allocation parameters" style="rounded=1;whiteSpace=wrap;html=1;shadow=0;comic=0;labelBackgroundColor=none;strokeWidth=1;fontFamily=Verdana;fontSize=12;align=center;arcSize=50;" vertex="1" parent="1c1d494c118603dd-2">
          <mxGeometry x="57.5" y="150" width="135" height="40" as="geometry" />
        </mxCell>
        <mxCell id="QMzzxeoRtSdpisOg_wXL-4" value="Initiate smart allocation" style="rounded=1;whiteSpace=wrap;html=1;shadow=0;comic=0;labelBackgroundColor=none;strokeWidth=1;fontFamily=Verdana;fontSize=12;align=center;arcSize=50;" vertex="1" parent="1c1d494c118603dd-2">
          <mxGeometry x="57.5" y="260" width="135" height="40" as="geometry" />
        </mxCell>
        <mxCell id="QMzzxeoRtSdpisOg_wXL-25" style="edgeStyle=orthogonalEdgeStyle;rounded=0;orthogonalLoop=1;jettySize=auto;html=1;entryX=0.5;entryY=0;entryDx=0;entryDy=0;" edge="1" parent="1c1d494c118603dd-2" source="QMzzxeoRtSdpisOg_wXL-20" target="QMzzxeoRtSdpisOg_wXL-54">
          <mxGeometry relative="1" as="geometry" />
        </mxCell>
        <mxCell id="QMzzxeoRtSdpisOg_wXL-56" value="Yes" style="edgeLabel;html=1;align=center;verticalAlign=middle;resizable=0;points=[];" vertex="1" connectable="0" parent="QMzzxeoRtSdpisOg_wXL-25">
          <mxGeometry x="0.005" relative="1" as="geometry">
            <mxPoint as="offset" />
          </mxGeometry>
        </mxCell>
        <mxCell id="QMzzxeoRtSdpisOg_wXL-20" value="Manual adjustment needed?" style="rhombus;whiteSpace=wrap;html=1;" vertex="1" parent="1c1d494c118603dd-2">
          <mxGeometry x="30" y="810" width="190" height="60" as="geometry" />
        </mxCell>
        <mxCell id="QMzzxeoRtSdpisOg_wXL-59" style="edgeStyle=orthogonalEdgeStyle;rounded=0;orthogonalLoop=1;jettySize=auto;html=1;entryX=0.75;entryY=0;entryDx=0;entryDy=0;" edge="1" parent="1c1d494c118603dd-2" source="QMzzxeoRtSdpisOg_wXL-24" target="QMzzxeoRtSdpisOg_wXL-57">
          <mxGeometry relative="1" as="geometry" />
        </mxCell>
        <mxCell id="QMzzxeoRtSdpisOg_wXL-24" value="Confirm final plan" style="rounded=1;whiteSpace=wrap;html=1;shadow=0;comic=0;labelBackgroundColor=none;strokeWidth=1;fontFamily=Verdana;fontSize=12;align=center;arcSize=50;" vertex="1" parent="1c1d494c118603dd-2">
          <mxGeometry x="130" y="970" width="110" height="40" as="geometry" />
        </mxCell>
        <mxCell id="QMzzxeoRtSdpisOg_wXL-53" style="edgeStyle=orthogonalEdgeStyle;rounded=0;orthogonalLoop=1;jettySize=auto;html=1;entryX=0.415;entryY=-0.1;entryDx=0;entryDy=0;exitX=1;exitY=0.5;exitDx=0;exitDy=0;entryPerimeter=0;" edge="1" parent="1c1d494c118603dd-2" target="QMzzxeoRtSdpisOg_wXL-24" source="QMzzxeoRtSdpisOg_wXL-20">
          <mxGeometry relative="1" as="geometry">
            <mxPoint x="210" y="810" as="sourcePoint" />
          </mxGeometry>
        </mxCell>
        <mxCell id="QMzzxeoRtSdpisOg_wXL-55" value="No" style="edgeLabel;html=1;align=center;verticalAlign=middle;resizable=0;points=[];" vertex="1" connectable="0" parent="QMzzxeoRtSdpisOg_wXL-53">
          <mxGeometry x="0.2736" y="-3" relative="1" as="geometry">
            <mxPoint as="offset" />
          </mxGeometry>
        </mxCell>
        <mxCell id="QMzzxeoRtSdpisOg_wXL-54" value="Manually adjust individual assignments" style="rounded=1;whiteSpace=wrap;html=1;shadow=0;comic=0;labelBackgroundColor=none;strokeWidth=1;fontFamily=Verdana;fontSize=12;align=center;arcSize=50;" vertex="1" parent="1c1d494c118603dd-2">
          <mxGeometry x="10" y="970" width="107.5" height="40" as="geometry" />
        </mxCell>
        <mxCell id="QMzzxeoRtSdpisOg_wXL-61" style="edgeStyle=orthogonalEdgeStyle;rounded=0;orthogonalLoop=1;jettySize=auto;html=1;" edge="1" parent="1c1d494c118603dd-2" source="QMzzxeoRtSdpisOg_wXL-57" target="QMzzxeoRtSdpisOg_wXL-60">
          <mxGeometry relative="1" as="geometry" />
        </mxCell>
        <mxCell id="QMzzxeoRtSdpisOg_wXL-57" value="" style="whiteSpace=wrap;html=1;rounded=0;shadow=0;comic=0;labelBackgroundColor=none;strokeWidth=1;fillColor=#000000;fontFamily=Verdana;fontSize=12;align=center;rotation=0;" vertex="1" parent="1c1d494c118603dd-2">
          <mxGeometry x="57.5" y="1060" width="147" height="10" as="geometry" />
        </mxCell>
        <mxCell id="QMzzxeoRtSdpisOg_wXL-58" style="edgeStyle=orthogonalEdgeStyle;rounded=0;orthogonalLoop=1;jettySize=auto;html=1;entryX=0.31;entryY=0.2;entryDx=0;entryDy=0;entryPerimeter=0;" edge="1" parent="1c1d494c118603dd-2" source="QMzzxeoRtSdpisOg_wXL-54" target="QMzzxeoRtSdpisOg_wXL-57">
          <mxGeometry relative="1" as="geometry" />
        </mxCell>
        <mxCell id="QMzzxeoRtSdpisOg_wXL-60" value="Confirm final allocation plan" style="rounded=1;whiteSpace=wrap;html=1;shadow=0;comic=0;labelBackgroundColor=none;strokeWidth=1;fontFamily=Verdana;fontSize=12;align=center;arcSize=50;" vertex="1" parent="1c1d494c118603dd-2">
          <mxGeometry x="53.5" y="1100" width="155" height="40" as="geometry" />
        </mxCell>
        <mxCell id="1c1d494c118603dd-3" value="System" style="swimlane;html=1;startSize=20;" parent="1c1d494c118603dd-1" vertex="1">
          <mxGeometry x="250" y="20" width="250" height="1360" as="geometry" />
        </mxCell>
        <mxCell id="QMzzxeoRtSdpisOg_wXL-7" value="Request student data from Records System" style="rounded=1;whiteSpace=wrap;html=1;shadow=0;comic=0;labelBackgroundColor=none;strokeWidth=1;fontFamily=Verdana;fontSize=12;align=center;arcSize=50;" vertex="1" parent="1c1d494c118603dd-3">
          <mxGeometry x="59" y="260" width="152" height="40" as="geometry" />
        </mxCell>
        <mxCell id="QMzzxeoRtSdpisOg_wXL-13" value="" style="edgeStyle=orthogonalEdgeStyle;rounded=0;orthogonalLoop=1;jettySize=auto;html=1;" edge="1" parent="1c1d494c118603dd-3" source="QMzzxeoRtSdpisOg_wXL-10" target="QMzzxeoRtSdpisOg_wXL-12">
          <mxGeometry relative="1" as="geometry" />
        </mxCell>
        <mxCell id="QMzzxeoRtSdpisOg_wXL-10" value="Receive student data" style="rounded=1;whiteSpace=wrap;html=1;shadow=0;comic=0;labelBackgroundColor=none;strokeWidth=1;fontFamily=Verdana;fontSize=12;align=center;arcSize=50;" vertex="1" parent="1c1d494c118603dd-3">
          <mxGeometry x="56" y="350" width="155" height="40" as="geometry" />
        </mxCell>
        <mxCell id="QMzzxeoRtSdpisOg_wXL-15" value="" style="edgeStyle=orthogonalEdgeStyle;rounded=0;orthogonalLoop=1;jettySize=auto;html=1;" edge="1" parent="1c1d494c118603dd-3" source="QMzzxeoRtSdpisOg_wXL-12" target="QMzzxeoRtSdpisOg_wXL-14">
          <mxGeometry relative="1" as="geometry" />
        </mxCell>
        <mxCell id="QMzzxeoRtSdpisOg_wXL-12" value="Get current available room inventory" style="rounded=1;whiteSpace=wrap;html=1;shadow=0;comic=0;labelBackgroundColor=none;strokeWidth=1;fontFamily=Verdana;fontSize=12;align=center;arcSize=50;" vertex="1" parent="1c1d494c118603dd-3">
          <mxGeometry x="56" y="450" width="155" height="40" as="geometry" />
        </mxCell>
        <mxCell id="QMzzxeoRtSdpisOg_wXL-17" value="" style="edgeStyle=orthogonalEdgeStyle;rounded=0;orthogonalLoop=1;jettySize=auto;html=1;" edge="1" parent="1c1d494c118603dd-3" source="QMzzxeoRtSdpisOg_wXL-14" target="QMzzxeoRtSdpisOg_wXL-16">
          <mxGeometry relative="1" as="geometry" />
        </mxCell>
        <mxCell id="QMzzxeoRtSdpisOg_wXL-14" value="Run AI matching and allocation algorithm" style="rounded=1;whiteSpace=wrap;html=1;shadow=0;comic=0;labelBackgroundColor=none;strokeWidth=1;fontFamily=Verdana;fontSize=12;align=center;arcSize=50;" vertex="1" parent="1c1d494c118603dd-3">
          <mxGeometry x="56" y="540" width="155" height="40" as="geometry" />
        </mxCell>
        <mxCell id="QMzzxeoRtSdpisOg_wXL-19" value="" style="edgeStyle=orthogonalEdgeStyle;rounded=0;orthogonalLoop=1;jettySize=auto;html=1;" edge="1" parent="1c1d494c118603dd-3" source="QMzzxeoRtSdpisOg_wXL-16" target="QMzzxeoRtSdpisOg_wXL-18">
          <mxGeometry relative="1" as="geometry" />
        </mxCell>
        <mxCell id="QMzzxeoRtSdpisOg_wXL-16" value="Generate preliminary allocation plan" style="rounded=1;whiteSpace=wrap;html=1;shadow=0;comic=0;labelBackgroundColor=none;strokeWidth=1;fontFamily=Verdana;fontSize=12;align=center;arcSize=50;" vertex="1" parent="1c1d494c118603dd-3">
          <mxGeometry x="56" y="630" width="155" height="40" as="geometry" />
        </mxCell>
        <mxCell id="QMzzxeoRtSdpisOg_wXL-18" value="Present preview plan to administrator" style="rounded=1;whiteSpace=wrap;html=1;shadow=0;comic=0;labelBackgroundColor=none;strokeWidth=1;fontFamily=Verdana;fontSize=12;align=center;arcSize=50;" vertex="1" parent="1c1d494c118603dd-3">
          <mxGeometry x="56" y="720" width="155" height="40" as="geometry" />
        </mxCell>
        <mxCell id="QMzzxeoRtSdpisOg_wXL-66" value="" style="edgeStyle=orthogonalEdgeStyle;rounded=0;orthogonalLoop=1;jettySize=auto;html=1;" edge="1" parent="1c1d494c118603dd-3" source="QMzzxeoRtSdpisOg_wXL-62" target="QMzzxeoRtSdpisOg_wXL-65">
          <mxGeometry relative="1" as="geometry" />
        </mxCell>
        <mxCell id="QMzzxeoRtSdpisOg_wXL-62" value="Commit allocation data" style="rounded=1;whiteSpace=wrap;html=1;shadow=0;comic=0;labelBackgroundColor=none;strokeWidth=1;fontFamily=Verdana;fontSize=12;align=center;arcSize=50;" vertex="1" parent="1c1d494c118603dd-3">
          <mxGeometry x="47.5" y="1160" width="155" height="40" as="geometry" />
        </mxCell>
        <mxCell id="QMzzxeoRtSdpisOg_wXL-68" value="" style="edgeStyle=orthogonalEdgeStyle;rounded=0;orthogonalLoop=1;jettySize=auto;html=1;" edge="1" parent="1c1d494c118603dd-3" source="QMzzxeoRtSdpisOg_wXL-65" target="QMzzxeoRtSdpisOg_wXL-67">
          <mxGeometry relative="1" as="geometry" />
        </mxCell>
        <mxCell id="QMzzxeoRtSdpisOg_wXL-65" value="Publish allocation results to students" style="rounded=1;whiteSpace=wrap;html=1;shadow=0;comic=0;labelBackgroundColor=none;strokeWidth=1;fontFamily=Verdana;fontSize=12;align=center;arcSize=50;" vertex="1" parent="1c1d494c118603dd-3">
          <mxGeometry x="47.5" y="1230" width="155" height="40" as="geometry" />
        </mxCell>
        <mxCell id="QMzzxeoRtSdpisOg_wXL-67" value="" style="shape=mxgraph.bpmn.shape;html=1;verticalLabelPosition=bottom;labelBackgroundColor=#ffffff;verticalAlign=top;perimeter=ellipsePerimeter;outline=end;symbol=terminate;rounded=0;shadow=0;comic=0;strokeWidth=1;fontFamily=Verdana;fontSize=12;align=center;" vertex="1" parent="1c1d494c118603dd-3">
          <mxGeometry x="105" y="1310" width="40" height="40" as="geometry" />
        </mxCell>
        <mxCell id="1c1d494c118603dd-4" value="Student Records System" style="swimlane;html=1;startSize=20;" parent="1c1d494c118603dd-1" vertex="1">
          <mxGeometry x="500" y="20" width="250" height="1360" as="geometry" />
        </mxCell>
        <mxCell id="QMzzxeoRtSdpisOg_wXL-8" value="Query and return student profile data" style="rounded=1;whiteSpace=wrap;html=1;shadow=0;comic=0;labelBackgroundColor=none;strokeWidth=1;fontFamily=Verdana;fontSize=12;align=center;arcSize=50;" vertex="1" parent="1c1d494c118603dd-4">
          <mxGeometry x="47.5" y="260" width="155" height="40" as="geometry" />
        </mxCell>
        <mxCell id="QMzzxeoRtSdpisOg_wXL-6" style="edgeStyle=orthogonalEdgeStyle;rounded=0;orthogonalLoop=1;jettySize=auto;html=1;entryX=0;entryY=0.5;entryDx=0;entryDy=0;" edge="1" parent="1c1d494c118603dd-1" source="QMzzxeoRtSdpisOg_wXL-4" target="QMzzxeoRtSdpisOg_wXL-7">
          <mxGeometry relative="1" as="geometry">
            <mxPoint x="310" y="300" as="targetPoint" />
          </mxGeometry>
        </mxCell>
        <mxCell id="QMzzxeoRtSdpisOg_wXL-9" style="edgeStyle=orthogonalEdgeStyle;rounded=0;orthogonalLoop=1;jettySize=auto;html=1;" edge="1" parent="1c1d494c118603dd-1" source="QMzzxeoRtSdpisOg_wXL-7" target="QMzzxeoRtSdpisOg_wXL-8">
          <mxGeometry relative="1" as="geometry" />
        </mxCell>
        <mxCell id="QMzzxeoRtSdpisOg_wXL-11" value="" style="edgeStyle=orthogonalEdgeStyle;rounded=0;orthogonalLoop=1;jettySize=auto;html=1;entryX=1;entryY=0.5;entryDx=0;entryDy=0;" edge="1" parent="1c1d494c118603dd-1" source="QMzzxeoRtSdpisOg_wXL-8" target="QMzzxeoRtSdpisOg_wXL-10">
          <mxGeometry relative="1" as="geometry">
            <Array as="points">
              <mxPoint x="625" y="390" />
            </Array>
          </mxGeometry>
        </mxCell>
        <mxCell id="QMzzxeoRtSdpisOg_wXL-21" style="edgeStyle=orthogonalEdgeStyle;rounded=0;orthogonalLoop=1;jettySize=auto;html=1;entryX=0.5;entryY=0;entryDx=0;entryDy=0;" edge="1" parent="1c1d494c118603dd-1" source="QMzzxeoRtSdpisOg_wXL-18" target="QMzzxeoRtSdpisOg_wXL-20">
          <mxGeometry relative="1" as="geometry" />
        </mxCell>
        <mxCell id="QMzzxeoRtSdpisOg_wXL-63" value="" style="edgeStyle=orthogonalEdgeStyle;rounded=0;orthogonalLoop=1;jettySize=auto;html=1;" edge="1" parent="1c1d494c118603dd-1" source="QMzzxeoRtSdpisOg_wXL-60" target="QMzzxeoRtSdpisOg_wXL-62">
          <mxGeometry relative="1" as="geometry" />
        </mxCell>
      </root>
    </mxGraphModel>
  </diagram>
</mxfile>
